# xmcd
#
# Track frame offsets:
#	150
#	5754
#	15280
#	22107
#	35182
#	46606
#	76011
#	87432
#	96615
#	102979
#	132984
#	139694
#	163873
#	168312
#	175721
#	186987
#	202016
#
# Disc length: 2714 seconds
#
# Revision: 1
# Processed by: cddbd v1.5.2PL0 Copyright (c) Steve Scherf et al.
# Submitted via: audiograbber 1.83.01
#
DISCID=e10a9811
DTITLE=John Sebastian and Paul Butterfield - Blues Harmonica
DYEAR=1982
DGENRE=Training
TTITLE0=Introduction
TTITLE1=Holding the Harmonica
TTITLE2=Playing Single Notes
TTITLE3=Tonguing
TTITLE4=Breathing
TTITLE5=Basic Music Theory
TTITLE6=Out Harp/1st Position Playing
TTITLE7="Streets of Larado" Explained
TTITLE8="Streets of Larado" Played
TTITLE9=Bending Notes
TTITLE10=Jimmy Reed Style Played on a G Harmonica
TTITLE11=Jimmy Reed Style Played on a C Harmonica
TTITLE12=Bending Notes to make a Lick
TTITLE13=Bending Note Lick Played in a Blues
TTITLE14=Bending up to a Note
TTITLE15=Double Note Bending
TTITLE16=Coming Attractions
EXTD=Homespun Tapes
EXTT0=
EXTT1=
EXTT2=
EXTT3=
EXTT4=
EXTT5=
EXTT6=
EXTT7=
EXTT8=
EXTT9=
EXTT10=
EXTT11=
EXTT12=
EXTT13=
EXTT14=
EXTT15=
EXTT16=
PLAYORDER=
